<svg data-v-423bf9ae="" xmlns="http://www.w3.org/2000/svg" viewBox="0 0 538.1750945983362 60" class="font"><!----><defs data-v-423bf9ae=""><linearGradient data-v-423bf9ae="" gradientTransform="rotate(25)" id="38a9f63e-c6a1-4b69-9b67-816f52d52e36" x1="0%" y1="0%" x2="100%" y2="0%"><stop data-v-423bf9ae="" offset="0%" style="stop-color: rgb(146, 13, 233); stop-opacity: 1;"></stop><stop data-v-423bf9ae="" offset="100%" style="stop-color: rgb(21, 54, 241); stop-opacity: 1;"></stop></linearGradient></defs><!----><g data-v-423bf9ae="" id="430ad886-8cec-4485-9a01-e5f6252ea49a" fill="#ffffff" transform="matrix(5.529953722625812,0,0,5.529953722625812,-0.3871003021280899,-15.594469843896292)"><path d="M0.07 9.32L0.07 8.25L5.83 5.36L5.83 6.62L1.20 8.78L5.83 10.93L5.83 12.20L0.07 9.32ZM7.82 4.27L7.82 3.09L15.24 3.09L15.24 6.02L13.84 6.02L13.84 4.27L10.14 4.27L10.14 7.60L13.71 7.60L13.71 8.75L10.14 8.75L10.14 12.28L11.18 12.28L11.18 13.45L7.82 13.45L7.82 12.28L8.80 12.28L8.80 4.27L7.82 4.27ZM19.49 13.45L19.49 12.80L19.49 12.80Q19.09 13.17 18.60 13.41L18.60 13.41L18.60 13.41Q18.11 13.65 17.49 13.65L17.49 13.65L17.49 13.65Q16.97 13.65 16.53 13.49L16.53 13.49L16.53 13.49Q16.10 13.32 15.78 13.04L15.78 13.04L15.78 13.04Q15.47 12.76 15.30 12.38L15.30 12.38L15.30 12.38Q15.12 12.00 15.12 11.58L15.12 11.58L15.12 11.58Q15.12 11.13 15.25 10.78L15.25 10.78L15.25 10.78Q15.39 10.43 15.61 10.18L15.61 10.18L15.61 10.18Q15.83 9.92 16.13 9.74L16.13 9.74L16.13 9.74Q16.43 9.57 16.75 9.46L16.75 9.46L16.75 9.46Q17.08 9.36 17.41 9.31L17.41 9.31L17.41 9.31Q17.75 9.27 18.06 9.27L18.06 9.27L18.06 9.27Q18.55 9.27 18.89 9.30L18.89 9.30L18.89 9.30Q19.22 9.33 19.50 9.39L19.50 9.39L19.50 8.80L19.50 8.80Q19.50 8.43 19.39 8.15L19.39 8.15L19.39 8.15Q19.28 7.88 19.09 7.69L19.09 7.69L19.09 7.69Q18.89 7.51 18.61 7.42L18.61 7.42L18.61 7.42Q18.33 7.33 17.99 7.33L17.99 7.33L17.99 7.33Q17.67 7.33 17.38 7.38L17.38 7.38L17.38 7.38Q17.08 7.42 16.83 7.50L16.83 7.50L16.83 7.50Q16.57 7.57 16.35 7.66L16.35 7.66L16.35 7.66Q16.14 7.75 15.99 7.85L15.99 7.85L15.57 6.97L15.57 6.97Q15.83 6.81 16.13 6.67L16.13 6.67L16.13 6.67Q16.43 6.53 16.76 6.43L16.76 6.43L16.76 6.43Q17.09 6.33 17.44 6.27L17.44 6.27L17.44 6.27Q17.78 6.21 18.12 6.21L18.12 6.21L18.12 6.21Q18.73 6.21 19.22 6.36L19.22 6.36L19.22 6.36Q19.71 6.51 20.06 6.82L20.06 6.82L20.06 6.82Q20.40 7.12 20.58 7.60L20.58 7.60L20.58 7.60Q20.77 8.07 20.77 8.74L20.77 8.74L20.76 12.28L21.55 12.28L21.55 13.45L19.49 13.45ZM17.77 12.58L17.77 12.58L17.77 12.58Q18.02 12.58 18.27 12.52L18.27 12.52L18.27 12.52Q18.53 12.46 18.75 12.36L18.75 12.36L18.75 12.36Q18.98 12.25 19.17 12.11L19.17 12.11L19.17 12.11Q19.36 11.97 19.49 11.82L19.49 11.82L19.50 10.22L18.02 10.22L18.02 10.22Q17.65 10.22 17.35 10.30L17.35 10.30L17.35 10.30Q17.04 10.38 16.82 10.54L16.82 10.54L16.82 10.54Q16.60 10.70 16.47 10.93L16.47 10.93L16.47 10.93Q16.35 11.16 16.35 11.46L16.35 11.46L16.35 11.46Q16.35 11.74 16.45 11.95L16.45 11.95L16.45 11.95Q16.56 12.16 16.74 12.30L16.74 12.30L16.74 12.30Q16.93 12.44 17.19 12.51L17.19 12.51L17.19 12.51Q17.45 12.58 17.77 12.58ZM23.08 3.99L23.08 2.82L25.32 2.82L25.32 7.15L25.36 7.15L25.36 7.15Q25.55 6.96 25.80 6.79L25.80 6.79L25.80 6.79Q26.05 6.62 26.33 6.50L26.33 6.50L26.33 6.50Q26.60 6.38 26.89 6.31L26.89 6.31L26.89 6.31Q27.19 6.24 27.51 6.24L27.51 6.24L27.51 6.24Q28.08 6.24 28.53 6.40L28.53 6.40L28.53 6.40Q28.99 6.56 29.31 6.88L29.31 6.88L29.31 6.88Q29.63 7.20 29.81 7.70L29.81 7.70L29.81 7.70Q29.98 8.20 29.98 8.89L29.98 8.89L29.98 12.28L31.05 12.28L31.05 13.45L27.69 13.45L27.69 12.28L28.66 12.28L28.66 9.04L28.66 9.04Q28.66 8.23 28.24 7.81L28.24 7.81L28.24 7.81Q27.83 7.39 27.06 7.39L27.06 7.39L27.06 7.39Q26.62 7.39 26.17 7.60L26.17 7.60L26.17 7.60Q25.72 7.81 25.32 8.12L25.32 8.12L25.32 12.28L26.35 12.28L26.35 13.45L22.98 13.45L22.98 12.28L24.05 12.28L24.05 3.99L23.08 3.99ZM32.14 9.91L32.14 9.91L32.14 9.91Q32.15 9.07 32.41 8.38L32.41 8.38L32.41 8.38Q32.68 7.69 33.15 7.19L33.15 7.19L33.15 7.19Q33.62 6.70 34.27 6.43L34.27 6.43L34.27 6.43Q34.92 6.17 35.70 6.17L35.70 6.17L35.70 6.17Q36.48 6.17 37.14 6.43L37.14 6.43L37.14 6.43Q37.79 6.70 38.25 7.19L38.25 7.19L38.25 7.19Q38.72 7.68 38.98 8.37L38.98 8.37L38.98 8.37Q39.24 9.06 39.24 9.90L39.24 9.90L39.24 9.90Q39.24 10.73 38.98 11.42L38.98 11.42L38.98 11.42Q38.72 12.11 38.25 12.61L38.25 12.61L38.25 12.61Q37.79 13.11 37.14 13.39L37.14 13.39L37.14 13.39Q36.48 13.67 35.70 13.67L35.70 13.67L35.70 13.67Q34.90 13.67 34.25 13.39L34.25 13.39L34.25 13.39Q33.60 13.12 33.13 12.62L33.13 12.62L33.13 12.62Q32.67 12.13 32.41 11.44L32.41 11.44L32.41 11.44Q32.15 10.75 32.14 9.91ZM33.49 9.91L33.49 9.91L33.49 9.91Q33.49 10.52 33.66 11.01L33.66 11.01L33.66 11.01Q33.84 11.50 34.14 11.85L34.14 11.85L34.14 11.85Q34.45 12.20 34.85 12.38L34.85 12.38L34.85 12.38Q35.25 12.57 35.70 12.57L35.70 12.57L35.70 12.57Q36.17 12.57 36.58 12.39L36.58 12.39L36.58 12.39Q36.98 12.20 37.28 11.86L37.28 11.86L37.28 11.86Q37.58 11.51 37.75 11.02L37.75 11.02L37.75 11.02Q37.93 10.53 37.93 9.91L37.93 9.91L37.93 9.91Q37.93 9.27 37.75 8.77L37.75 8.77L37.75 8.77Q37.58 8.27 37.29 7.94L37.29 7.94L37.29 7.94Q36.99 7.60 36.58 7.43L36.58 7.43L36.58 7.43Q36.17 7.26 35.70 7.26L35.70 7.26L35.70 7.26Q35.25 7.26 34.85 7.43L34.85 7.43L34.85 7.43Q34.45 7.60 34.14 7.94L34.14 7.94L34.14 7.94Q33.84 8.27 33.66 8.77L33.66 8.77L33.66 8.77Q33.49 9.27 33.49 9.91ZM44.88 7.55L44.88 6.37L47.16 6.37L47.16 12.28L47.95 12.28L47.95 13.45L45.88 13.45L45.88 12.80L45.88 12.80Q45.40 13.17 44.84 13.37L44.84 13.37L44.84 13.37Q44.28 13.58 43.63 13.58L43.63 13.58L43.63 13.58Q43.10 13.58 42.67 13.42L42.67 13.42L42.67 13.42Q42.23 13.27 41.93 12.94L41.93 12.94L41.93 12.94Q41.62 12.62 41.46 12.12L41.46 12.12L41.46 12.12Q41.30 11.62 41.30 10.93L41.30 10.93L41.30 7.55L40.34 7.55L40.34 6.37L42.62 6.37L42.62 10.78L42.62 10.78Q42.62 11.59 43.00 12.01L43.00 12.01L43.00 12.01Q43.37 12.43 44.08 12.43L44.08 12.43L44.08 12.43Q44.50 12.43 44.96 12.28L44.96 12.28L44.96 12.28Q45.42 12.13 45.83 11.86L45.83 11.86L45.83 7.55L44.88 7.55ZM49.84 7.55L49.84 6.37L52.10 6.37L52.10 7.20L52.11 7.20L52.11 7.20Q52.34 7 52.60 6.83L52.60 6.83L52.60 6.83Q52.86 6.65 53.14 6.52L53.14 6.52L53.14 6.52Q53.42 6.39 53.72 6.32L53.72 6.32L53.72 6.32Q54.02 6.24 54.35 6.24L54.35 6.24L54.35 6.24Q55.12 6.24 55.67 6.52L55.67 6.52L55.67 6.52Q56.23 6.81 56.53 7.41L56.53 7.41L56.53 7.41Q56.79 7.18 57.07 6.96L57.07 6.96L57.07 6.96Q57.36 6.75 57.67 6.59L57.67 6.59L57.67 6.59Q57.98 6.43 58.32 6.34L58.32 6.34L58.32 6.34Q58.67 6.24 59.04 6.24L59.04 6.24L59.04 6.24Q59.61 6.24 60.07 6.40L60.07 6.40L60.07 6.40Q60.53 6.56 60.85 6.88L60.85 6.88L60.85 6.88Q61.17 7.20 61.34 7.70L61.34 7.70L61.34 7.70Q61.50 8.20 61.50 8.89L61.50 8.89L61.50 12.28L62.49 12.28L62.49 13.45L59.18 13.45L59.18 12.28L60.18 12.28L60.18 9.04L60.18 9.04Q60.18 8.23 59.77 7.81L59.77 7.81L59.77 7.81Q59.36 7.39 58.58 7.39L58.58 7.39L58.58 7.39Q58.13 7.39 57.65 7.61L57.65 7.61L57.65 7.61Q57.17 7.83 56.83 8.16L56.83 8.16L56.83 12.28L57.80 12.28L57.80 13.45L54.50 13.45L54.50 12.28L55.50 12.28L55.50 9.04L55.50 9.04Q55.50 8.23 55.09 7.81L55.09 7.81L55.09 7.81Q54.67 7.39 53.90 7.39L53.90 7.39L53.90 7.39Q53.46 7.39 53.01 7.60L53.01 7.60L53.01 7.60Q52.55 7.81 52.15 8.13L52.15 8.13L52.15 12.28L53.15 12.28L53.15 13.45L49.84 13.45L49.84 12.28L50.83 12.28L50.83 7.55L49.84 7.55ZM63.83 12.63L63.83 12.63L63.83 12.63Q63.83 12.45 63.90 12.29L63.90 12.29L63.90 12.29Q63.97 12.13 64.09 12.01L64.09 12.01L64.09 12.01Q64.22 11.89 64.38 11.82L64.38 11.82L64.38 11.82Q64.54 11.74 64.72 11.74L64.72 11.74L64.72 11.74Q64.90 11.74 65.06 11.82L65.06 11.82L65.06 11.82Q65.22 11.89 65.34 12.01L65.34 12.01L65.34 12.01Q65.46 12.13 65.53 12.29L65.53 12.29L65.53 12.29Q65.60 12.45 65.60 12.63L65.60 12.63L65.60 12.63Q65.60 12.81 65.53 12.97L65.53 12.97L65.53 12.97Q65.46 13.14 65.34 13.27L65.34 13.27L65.34 13.27Q65.22 13.39 65.06 13.46L65.06 13.46L65.06 13.46Q64.90 13.54 64.72 13.54L64.72 13.54L64.72 13.54Q64.54 13.54 64.38 13.46L64.38 13.46L64.38 13.46Q64.22 13.39 64.09 13.27L64.09 13.27L64.09 13.27Q63.97 13.14 63.90 12.97L63.90 12.97L63.90 12.97Q63.83 12.81 63.83 12.63ZM71.15 3.99L71.15 2.82L73.38 2.82L73.38 12.28L74.42 12.28L74.42 13.45L72.11 13.45L72.11 12.87L72.11 12.87Q71.77 13.22 71.32 13.42L71.32 13.42L71.32 13.42Q70.87 13.61 70.29 13.61L70.29 13.61L70.29 13.61Q69.58 13.61 68.96 13.36L68.96 13.36L68.96 13.36Q68.34 13.11 67.88 12.63L67.88 12.63L67.88 12.63Q67.43 12.15 67.17 11.45L67.17 11.45L67.17 11.45Q66.92 10.75 66.92 9.84L66.92 9.84L66.92 9.84Q66.92 9.02 67.16 8.35L67.16 8.35L67.16 8.35Q67.41 7.68 67.86 7.20L67.86 7.20L67.86 7.20Q68.31 6.73 68.95 6.46L68.95 6.46L68.95 6.46Q69.58 6.20 70.36 6.20L70.36 6.20L70.36 6.20Q70.88 6.20 71.30 6.31L71.30 6.31L71.30 6.31Q71.72 6.43 72.11 6.71L72.11 6.71L72.11 3.99L71.15 3.99ZM70.46 12.50L70.46 12.50L70.46 12.50Q71.03 12.50 71.41 12.34L71.41 12.34L71.41 12.34Q71.79 12.17 72.11 11.83L72.11 11.83L72.11 7.87L72.11 7.87Q71.77 7.58 71.33 7.45L71.33 7.45L71.33 7.45Q70.88 7.32 70.42 7.32L70.42 7.32L70.42 7.32Q69.97 7.32 69.57 7.49L69.57 7.49L69.57 7.49Q69.17 7.66 68.88 7.98L68.88 7.98L68.88 7.98Q68.58 8.30 68.41 8.76L68.41 8.76L68.41 8.76Q68.24 9.23 68.24 9.83L68.24 9.83L68.24 9.83Q68.24 10.49 68.40 10.99L68.40 10.99L68.40 10.99Q68.56 11.48 68.86 11.82L68.86 11.82L68.86 11.82Q69.15 12.16 69.56 12.33L69.56 12.33L69.56 12.33Q69.97 12.50 70.46 12.50ZM81.94 10.08L76.84 10.08L76.84 10.08Q76.84 10.38 76.89 10.63L76.89 10.63L76.89 10.63Q76.93 10.88 77.01 11.10L77.01 11.10L77.01 11.10Q77.27 11.79 77.82 12.13L77.82 12.13L77.82 12.13Q78.38 12.48 79.08 12.48L79.08 12.48L79.08 12.48Q79.64 12.48 80.16 12.32L80.16 12.32L80.16 12.32Q80.68 12.17 81.26 11.84L81.26 11.84L81.77 12.71L81.77 12.71Q81.07 13.19 80.37 13.42L80.37 13.42L80.37 13.42Q79.67 13.65 78.91 13.65L78.91 13.65L78.91 13.65Q78.19 13.65 77.58 13.41L77.58 13.41L77.58 13.41Q76.97 13.17 76.52 12.70L76.52 12.70L76.52 12.70Q76.08 12.23 75.83 11.53L75.83 11.53L75.83 11.53Q75.58 10.82 75.58 9.88L75.58 9.88L75.58 9.88Q75.58 9.13 75.80 8.45L75.80 8.45L75.80 8.45Q76.01 7.78 76.43 7.28L76.43 7.28L76.43 7.28Q76.85 6.77 77.47 6.48L77.47 6.48L77.47 6.48Q78.09 6.19 78.92 6.19L78.92 6.19L78.92 6.19Q79.72 6.19 80.26 6.43L80.26 6.43L80.26 6.43Q80.79 6.67 81.13 7.07L81.13 7.07L81.13 7.07Q81.47 7.47 81.65 7.98L81.65 7.98L81.65 7.98Q81.82 8.50 81.89 9.03L81.89 9.03L81.89 9.03Q81.92 9.29 81.93 9.56L81.93 9.56L81.93 9.56Q81.94 9.82 81.94 10.08L81.94 10.08ZM78.83 7.25L78.83 7.25L78.83 7.25Q78.39 7.25 78.06 7.38L78.06 7.38L78.06 7.38Q77.72 7.51 77.49 7.74L77.49 7.74L77.49 7.74Q77.26 7.98 77.12 8.32L77.12 8.32L77.12 8.32Q76.98 8.66 76.91 9.08L76.91 9.08L80.58 9.08L80.58 9.08Q80.55 8.69 80.46 8.35L80.46 8.35L80.46 8.35Q80.36 8.02 80.15 7.77L80.15 7.77L80.15 7.77Q79.95 7.53 79.63 7.39L79.63 7.39L79.63 7.39Q79.30 7.25 78.83 7.25ZM83.13 7.55L83.13 6.37L85.57 6.37L85.57 7.55L84.91 7.55L86.66 12.43L88.37 7.55L87.94 7.55L87.94 6.37L90.18 6.37L90.18 7.55L89.57 7.55L87.25 13.56L86.00 13.56L83.69 7.55L83.13 7.55ZM97.39 8.25L97.39 9.32L91.63 12.20L91.63 10.93L96.26 8.78L91.63 6.62L91.63 5.36L97.39 8.25Z"></path></g><!----><!----></svg>